M48
; DRILL file {KiCad (5.1.0)-1} date 03/25/19 15:40:55
; FORMAT={-:-/ absolute / metric / decimal}
; #@! TF.CreationDate,2019-03-25T15:40:55+01:00
; #@! TF.GenerationSoftware,Kicad,Pcbnew,(5.1.0)-1
FMAT,2
METRIC
T1C0.800
T2C0.900
T3C1.000
T4C1.100
T5C1.200
T6C1.520
T7C3.200
T8C3.200
%
G90
G05
T1
X15.535Y22.357
X15.535Y14.737
X18.075Y22.357
X18.075Y14.737
X77.856Y59.939
X77.856Y57.399
X85.476Y59.939
X85.476Y57.399
X39.248Y96.185
X39.248Y88.565
X41.788Y96.185
X41.788Y88.565
X14.737Y96.185
X14.737Y88.565
X17.277Y96.185
X17.277Y88.565
X40.223Y22.357
X40.223Y14.737
X42.763Y22.357
X42.763Y14.737
X47.655Y96.185
X47.655Y88.565
X50.195Y96.185
X50.195Y88.565
X22.598Y96.185
X22.598Y88.565
X25.138Y96.185
X25.138Y88.565
X64.902Y59.685
X64.902Y57.145
X72.522Y59.685
X72.522Y57.145
X30.599Y96.185
X30.599Y88.565
X33.139Y96.185
X33.139Y88.565
X27.366Y22.357
X27.366Y14.737
X29.906Y22.357
X29.906Y14.737
T2
X26.815Y81.796
X26.815Y79.256
X26.815Y76.716
X26.815Y74.176
X26.815Y71.636
X26.815Y69.096
X26.815Y66.556
X26.815Y64.016
X26.815Y61.476
X26.815Y58.936
X26.815Y56.396
X26.815Y53.856
X26.815Y51.316
X26.815Y48.776
X26.815Y46.236
X26.815Y43.696
X26.815Y41.156
X26.815Y38.616
X26.815Y36.076
X26.815Y33.536
X41.547Y81.796
X41.547Y79.256
X41.547Y76.716
X41.547Y74.176
X41.547Y71.636
X41.547Y69.096
X41.547Y66.556
X41.547Y64.016
X41.547Y61.476
X41.547Y58.936
X41.547Y56.396
X41.547Y53.856
X41.547Y51.316
X41.547Y48.776
X41.547Y46.236
X41.547Y43.696
X41.547Y41.156
X41.547Y38.616
X41.547Y36.076
X41.547Y33.536
T3
X56.266Y21.839
X58.806Y21.839
X61.346Y21.839
X72.776Y52.065
X72.776Y49.525
X72.776Y46.985
X72.776Y44.445
X80.396Y52.065
X80.396Y49.525
X80.396Y46.985
X80.396Y44.445
X78.656Y79.484
X78.656Y76.944
X78.656Y74.404
X64.694Y11.994
X66.079Y9.154
X67.464Y11.994
X68.849Y9.154
X70.234Y11.994
X71.619Y9.154
X73.004Y11.994
X74.389Y9.154
X75.774Y11.994
X71.252Y21.839
X73.792Y21.839
X76.332Y21.839
X92.243Y16.043
X14.864Y44.953
X14.864Y42.413
T4
X36.797Y4.3
X40.607Y4.3
X44.417Y4.3
X68.768Y110.068
X72.578Y110.068
X76.388Y110.068
X24.262Y4.313
X28.072Y4.313
X31.882Y4.313
X11.537Y4.237
X15.347Y4.237
X19.157Y4.237
X57.104Y110.068
X60.914Y110.068
X64.724Y110.068
T5
X1.91Y71.623
X4.704Y90.419
X4.704Y82.799
X4.718Y86.636
X15.479Y30.815
X17.369Y84.277
X18.674Y79.497
X18.674Y64.765
X19.076Y71.932
X20.706Y82.037
X21.468Y33.523
X32.644Y52.319
X34.244Y48.509
X38.703Y71.977
X44.836Y42.413
X45.598Y81.585
X45.786Y37.733
X47.831Y34.858
X48.9Y73.147
X49.408Y61.971
X49.662Y82.037
X51.359Y101.046
X53.98Y25.395
X58.552Y89.657
X59.06Y56.383
X60.076Y70.861
X61.085Y24.985
X61.092Y105.659
X64.332Y48.245
X64.949Y41.952
X65.742Y25.649
X67.442Y17.521
X67.442Y76.957
X68.792Y41.398
X68.966Y104.897
X75.824Y100.071
X76.078Y68.321
X76.332Y105.659
X76.586Y86.863
X76.84Y25.395
X83.449Y22.713
X85.095Y102.598
X85.095Y94.331
X90.747Y80.272
X91.521Y109.469
X54.996Y80.513
X54.996Y70.353
X10.978Y108.58
X14.478Y108.58
X17.978Y108.58
X21.478Y108.58
X24.978Y108.58
X28.478Y108.58
X31.978Y108.58
X35.478Y108.58
X38.978Y108.58
X42.478Y108.58
X45.978Y108.58
X49.478Y108.58
T6
X90.886Y90.279
X90.886Y85.199
X81.806Y109.367
X86.886Y109.367
X5.212Y43.937
X5.212Y38.857
X91.084Y28.372
X91.084Y23.292
T7
X57.734Y11.694
X82.734Y11.694
T8
X5.331Y7.094
X91.331Y7.094
X91.331Y99.094
X5.331Y99.094
X91.331Y53.094
X5.331Y53.094
T0
M30
