M48
;DRILL file {KiCad (5.0.2)-1} date 02/13/19 19:35:07
;FORMAT={-:-/ absolute / metric / decimal}
FMAT,2
METRIC,TZ
T1C1.000
%
G90
G05
T1
X37.44Y29.82
X37.44Y27.28
X37.44Y24.74
X37.44Y22.2
X37.44Y19.66
X37.44Y17.12
X37.44Y14.58
X37.44Y12.04
X37.44Y9.5
X37.44Y6.96
X37.44Y4.42
X37.44Y1.88
X1.88Y29.82
X1.88Y27.28
X1.88Y24.74
X1.88Y22.2
X1.88Y19.66
X1.88Y17.12
X1.88Y14.58
X1.88Y12.04
X1.88Y9.5
X1.88Y6.96
X1.88Y4.42
X1.88Y1.88
T0
M30
