M48
;DRILL file {KiCad (5.0.1)-3} date 01/26/19 22:20:52
;FORMAT={-:-/ absolute / metric / decimal}
FMAT,2
METRIC,TZ
T1C0.700
T2C0.762
T3C0.800
T4C1.000
T5C1.200
T6C1.300
T7C1.520
T8C3.200
T9C3.200
%
G90
G05
M71
T1
X27.051Y26.67
X27.051Y19.05
X27.051Y13.97
X27.051Y8.89
X34.671Y26.67
X34.671Y19.05
X34.671Y13.97
T2
X30.156Y74.084
X30.156Y71.544
X30.156Y69.004
X30.156Y66.464
X30.156Y63.924
X30.156Y61.384
X30.156Y58.844
X30.156Y56.304
X30.156Y53.764
X30.156Y51.224
X30.156Y48.684
X30.156Y46.144
X65.716Y74.084
X65.716Y71.544
X65.716Y69.004
X65.716Y66.464
X65.716Y63.924
X65.716Y61.384
X65.716Y58.844
X65.716Y56.304
X65.716Y53.764
X65.716Y51.224
X65.716Y48.684
X65.716Y46.144
X34.671Y8.89
T3
X13.97Y72.39
X22.606Y75.184
X30.396Y42.874
X37.084Y62.992
X40.894Y47.244
X46.482Y58.42
X47.498Y63.754
X52.832Y45.72
X56.926Y49.814
X57.658Y46.228
X76.454Y73.406
X90.678Y68.58
X91.142Y38.483
X92.456Y65.786
X92.813Y41.073
X97.626Y43.304
X101.092Y69.596
X101.6Y55.88
X102.108Y75.946
X27.178Y30.988
X34.798Y30.988
X81.846Y83.674
X81.846Y81.134
X81.846Y78.594
X81.846Y76.054
X81.846Y73.514
X81.846Y70.974
X81.846Y68.434
X81.846Y65.894
X81.846Y63.354
X81.846Y60.814
X81.846Y58.274
X81.846Y55.734
X81.846Y53.194
X81.846Y50.654
X81.846Y48.114
X97.086Y83.674
X97.086Y81.134
X97.086Y78.594
X97.086Y76.054
X97.086Y73.514
X97.086Y70.974
X97.086Y68.434
X97.086Y65.894
X97.086Y63.354
X97.086Y60.814
X97.086Y58.274
X97.086Y55.734
X97.086Y53.194
X97.086Y50.654
X97.086Y48.114
X62.992Y84.836
X62.992Y82.296
X70.612Y84.836
X70.612Y82.296
X62.992Y92.202
X62.992Y89.662
X70.612Y92.202
X70.612Y89.662
X41.275Y31.75
X41.275Y24.13
X43.815Y31.75
X43.815Y24.13
X75.293Y15.062
X75.293Y12.522
X82.913Y15.062
X82.913Y12.522
X58.928Y14.986
X58.928Y12.446
X66.548Y14.986
X66.548Y12.446
T4
X10.033Y63.627
X11.557Y60.071
X13.589Y59.817
X15.875Y60.96
X35.941Y92.075
X18.161Y28.956
X18.161Y26.416
X18.161Y23.876
X2.286Y1.905
X5.034Y29.349
X5.034Y26.579
X5.034Y23.809
X5.034Y21.039
X7.874Y30.734
X7.874Y27.964
X7.874Y25.194
X7.874Y22.424
X7.874Y19.654
X68.58Y28.702
X71.12Y28.702
X73.66Y28.702
X18.161Y19.304
X18.161Y16.764
X18.161Y14.224
T5
X6.096Y84.5
X6.096Y81.
X6.096Y77.5
X6.096Y74.
X6.096Y70.5
X6.096Y67.
X6.096Y63.5
X6.096Y60.
X6.096Y56.5
X6.096Y53.
X6.096Y49.5
X6.096Y46.
T6
X52.578Y34.798
X55.078Y39.798
X57.578Y34.798
T7
X25.527Y92.075
X30.607Y92.075
X15.748Y4.572
X20.828Y4.572
X109.982Y92.71
X109.982Y87.63
T8
X7.574Y37.694
X7.574Y12.694
T9
X99.036Y91.224
X53.036Y5.224
X7.036Y5.224
X53.036Y91.224
X99.036Y5.224
X7.036Y91.224
T0
M30
